<?xml version="1.0" encoding="utf-8"?>
<!-- Generator: Adobe Illustrator 16.0.0, SVG Export Plug-In . SVG Version: 6.00 Build 0)  -->
<!DOCTYPE svg PUBLIC "-//W3C//DTD SVG 1.1//EN" "http://www.w3.org/Graphics/SVG/1.1/DTD/svg11.dtd">
<svg version="1.1" id="Layer_1" xmlns="http://www.w3.org/2000/svg" xmlns:xlink="http://www.w3.org/1999/xlink" x="0px" y="0px"
	 width="880.282px" height="239.437px" viewBox="0 0 880.282 239.437" enable-background="new 0 0 880.282 239.437"
	 xml:space="preserve">
<g>
	<path fill="#8C0006" d="M284.033,65.859h10.403l21.978,51.654h-11.792l-4.69-11.503h-21.689l-4.687,11.503h-11.503L284.033,65.859z
		 M295.901,96.048l-6.813-16.631l-6.815,16.631H295.901z"/>
	<polygon fill="#8C0006" points="324.337,66.228 335.621,66.228 335.621,107.257 361.189,107.257 361.189,117.513 324.337,117.513 	
		"/>
	<path fill="#8C0006" d="M364.497,92.017v-0.148c0-14.576,11.356-26.519,26.888-26.519c9.235,0,14.801,2.489,20.148,7.033
		l-7.104,8.57c-3.958-3.298-7.475-5.202-13.408-5.202c-8.208,0-14.726,7.252-14.726,15.972v0.146
		c0,9.378,6.447,16.267,15.531,16.267c4.103,0,7.762-1.027,10.623-3.078V97.73h-11.356v-9.742h22.273v22.272
		c-5.278,4.466-12.53,8.132-21.909,8.132C375.486,118.392,364.497,107.183,364.497,92.017"/>
	<path fill="#8C0006" d="M423.413,95.535V66.228h11.283V95.24c0,8.352,4.178,12.676,11.068,12.676
		c6.885,0,11.056-4.175,11.056-12.311V66.228h11.287v28.938c0,15.533-8.723,23.155-22.492,23.155
		C431.835,118.322,423.413,110.625,423.413,95.535"/>
	<polygon fill="#8C0006" points="479.619,66.228 491.785,66.228 505.263,87.913 518.743,66.228 530.904,66.228 530.904,117.513 
		519.7,117.513 519.7,84.032 505.263,105.935 504.974,105.935 490.682,84.251 490.682,117.513 479.619,117.513 	"/>
	<path fill="#8C0006" d="M582.794,65.859h10.401l21.979,51.654h-11.788l-4.694-11.503h-21.688l-4.685,11.503h-11.508L582.794,65.859
		z M594.663,96.048l-6.811-16.631l-6.818,16.631H594.663z"/>
	<polygon fill="#8C0006" points="623.099,66.228 662.153,66.228 662.153,76.484 634.382,76.484 634.382,87.399 658.859,87.399 
		658.859,97.66 634.382,97.66 634.382,117.513 623.099,117.513 	"/>
	<path fill="#8C0006" d="M671.17,66.228h23.445c6.52,0,11.577,1.831,14.944,5.207c2.858,2.85,4.399,6.88,4.399,11.718v0.146
		c0,8.284-4.474,13.479-10.989,15.897l12.522,18.317h-13.186l-10.985-16.412h-8.868v16.412H671.17V66.228z M693.886,91.139
		c5.492,0,8.641-2.933,8.641-7.257v-0.146c0-4.833-3.363-7.327-8.864-7.327h-11.209v14.729H693.886z"/>
	<rect x="724.667" y="66.228" fill="#8C0006" width="11.28" height="51.285"/>
	<path fill="#8C0006" d="M746.5,92.017v-0.148c0-14.576,10.994-26.519,26.747-26.519c9.665,0,15.456,3.223,20.22,7.911l-7.184,8.276
		c-3.955-3.587-7.978-5.786-13.114-5.786c-8.642,0-14.872,7.179-14.872,15.972v0.146c0,8.794,6.082,16.122,14.872,16.122
		c5.865,0,9.457-2.345,13.479-6.011l7.183,7.253c-5.27,5.643-11.135,9.159-21.025,9.159C757.715,118.392,746.5,106.744,746.5,92.017
		"/>
	<path fill="#8C0006" d="M820.441,65.859h10.401l21.975,51.654h-11.789l-4.689-11.503H814.65l-4.689,11.503h-11.503L820.441,65.859z
		 M832.304,96.048l-6.81-16.631l-6.81,16.631H832.304z"/>
	<path fill="#8C0006" d="M262.191,156.689v-0.066c0-7.124,5.371-12.956,13.064-12.956c4.725,0,7.55,1.573,9.879,3.86l-3.508,4.042
		c-1.935-1.747-3.901-2.824-6.41-2.824c-4.22,0-7.266,3.513-7.266,7.804v0.074c0,4.291,2.975,7.871,7.266,7.871
		c2.868,0,4.62-1.145,6.588-2.933l3.509,3.545c-2.581,2.751-5.442,4.474-10.275,4.474
		C267.667,169.58,262.191,163.888,262.191,156.689"/>
	<path fill="#8C0006" d="M316.167,143.914h5.082l10.734,25.235h-5.76l-2.291-5.625h-10.596l-2.291,5.625h-5.614L316.167,143.914z
		 M321.966,158.662l-3.331-8.127l-3.328,8.127H321.966z"/>
	<path fill="#8C0006" d="M353.712,144.096h10.235c5.981,0,9.596,3.538,9.596,8.657v0.075c0,5.8-4.509,8.798-10.13,8.798h-4.186
		v7.522h-5.516V144.096z M363.591,156.73c2.757,0,4.368-1.648,4.368-3.794v-0.074c0-2.469-1.717-3.795-4.474-3.795h-4.258v7.663
		H363.591z"/>
	<rect x="395.736" y="144.096" fill="#8C0006" width="5.511" height="25.053"/>
	<polygon fill="#8C0006" points="431.22,149.175 423.598,149.175 423.598,144.096 444.356,144.096 444.356,149.175 436.734,149.175 
		436.734,169.149 431.22,169.149 	"/>
	<path fill="#8C0006" d="M471.819,143.914h5.078l10.737,25.235h-5.758l-2.295-5.625h-10.597l-2.285,5.625h-5.617L471.819,143.914z
		 M477.619,158.662l-3.331-8.127l-3.33,8.127H477.619z"/>
	<polygon fill="#8C0006" points="509.365,144.096 514.874,144.096 514.874,164.137 527.367,164.137 527.367,169.149 
		509.365,169.149 	"/>
	<polygon fill="#8C0006" points="577.994,144.096 583.502,144.096 583.502,164.137 595.996,164.137 595.996,169.149 
		577.994,169.149 	"/>
	<polygon fill="#8C0006" points="618.016,144.096 623.525,144.096 623.525,164.137 636.019,164.137 636.019,169.149 
		618.016,169.149 	"/>
	<path fill="#8C0006" d="M658.039,144.096h10.231c5.981,0,9.598,3.538,9.598,8.657v0.075c0,5.8-4.511,8.798-10.128,8.798h-4.188
		v7.522h-5.514V144.096z M667.914,156.73c2.759,0,4.37-1.648,4.37-3.794v-0.074c0-2.469-1.719-3.795-4.473-3.795h-4.259v7.663
		H667.914z"/>
	<polygon fill="#8C0006" points="199.476,84.247 199.476,26.545 27.464,26.545 27.464,212.892 199.476,212.892 199.476,150.41 
		171.545,150.41 171.545,183.117 136.259,183.117 136.259,163.639 91.05,163.639 91.05,183.117 56.133,183.117 56.133,55.396 
		171.91,55.396 171.91,84.247 	"/>
	<rect x="90.682" y="88.658" fill="#8C0006" width="45.577" height="40.801"/>
</g>
</svg>
